<svg width="29.302002" height="28.160583" viewBox="0 0 29.302 28.1606" fill="none" xmlns="http://www.w3.org/2000/svg" xmlns:xlink="http://www.w3.org/1999/xlink">
	<desc>
			Created with Pixso.
	</desc>
	<defs/>
	<path id="Vector" d="M5.38846 25.9797C4.03448 23.5914 4.95554 19.8461 7.75693 17.0444C10.9384 13.8635 15.337 13.1052 17.5827 15.3507C17.5851 15.3535 17.5879 15.3567 17.5913 15.3597C17.1418 16.6676 15.7102 19.4496 11.42 20.9539C7.48941 22.3324 5.97354 24.5248 5.38846 25.9797ZM16.2605 19.0199C15.2344 20.0469 13.776 21.0546 11.7102 21.7796C7.51767 23.2496 6.34631 25.6568 6.01944 26.8224C6.03528 26.8383 6.04807 26.8549 6.06293 26.8694C8.30844 29.1151 12.7076 28.3567 15.8882 25.1758C18.7188 22.3452 19.6292 18.5518 18.2142 16.1676C17.8737 16.9617 17.2812 17.9991 16.2605 19.0199ZM7.58466 8.6745C12.1138 9.07141 14.564 7.12573 15.512 6.11951C15.5103 6.11548 15.5092 6.11102 15.5079 6.10736C14.387 3.13647 10.0663 2.01532 5.85745 3.60339C2.15076 5.00208 -0.231903 8.03522 0.0179138 10.7691C1.1506 9.68481 3.43515 8.31158 7.58466 8.6745ZM9.9169 14.3627C13.6625 12.9499 16.0541 9.86804 15.7471 7.11243C15.1096 7.69586 14.1423 8.3974 12.7918 8.9071C11.434 9.41937 9.6897 9.73737 7.50894 9.54639C3.0834 9.15839 1.02377 10.8694 0.2453 11.7975C0.253204 11.8182 0.258759 11.8384 0.26593 11.8578C1.38705 14.8295 5.70786 15.9511 9.9169 14.3627ZM23.0248 8.16724C25.7422 4.52136 25.3735 1.41412 25.0151 0.0790405C25.0109 0.0785522 25.0069 0.0770264 25.003 0.0761108C21.8859 -0.530762 18.6621 2.55713 17.8023 6.97247C17.0451 10.8621 18.3749 14.4822 20.8322 15.706C20.5046 14.1725 20.5365 11.5074 23.0248 8.16724ZM25.9836 0.400635C26.1454 1.24988 26.2341 2.44141 25.9583 3.85791C25.6811 5.2829 25.0348 6.93402 23.7271 8.68958C21.0722 12.2516 21.4461 14.9025 21.8269 16.0523C21.8487 16.0568 21.869 16.0624 21.8891 16.0668C25.0065 16.6737 28.2299 13.5863 29.0896 9.17059C29.8553 5.24121 28.4892 1.58649 25.9836 0.400635Z" fill="#000000" fill-opacity="1.000000" fill-rule="nonzero"/>
</svg>
